<svg width="570" height="493" viewBox="0 0 570 493" fill="none" xmlns="http://www.w3.org/2000/svg">
<path d="M479.572 359.224C479.572 359.224 548.432 179.599 512.758 152.205C477.084 124.812 327.465 135.874 319.268 145.66C311.071 155.447 262.809 371.666 262.809 371.666L479.572 359.224Z" fill="#191B1D"/>
<path d="M262.705 372.753C262.555 372.751 262.407 372.719 262.27 372.658C262.134 372.597 262.011 372.508 261.91 372.397C261.806 372.275 261.732 372.13 261.696 371.973C261.66 371.817 261.661 371.654 261.701 371.498C263.667 362.653 310.194 154.902 318.474 145.032C323.012 139.616 362.952 134.576 405.694 134.012C430.787 133.677 491.617 134.702 513.407 151.41C528.567 163.036 527.605 201.596 510.563 266.253C498.016 314.076 480.723 359.14 480.555 359.579C480.485 359.769 480.361 359.934 480.197 360.053C480.033 360.172 479.838 360.24 479.635 360.248L262.767 372.795L262.705 372.753ZM413.598 136.04H405.736C361.823 136.626 323.66 142.042 320.001 146.328C313.728 153.877 280.772 295.487 263.959 370.557L478.778 358.178C483.19 346.489 545.693 178.803 512.068 153.02C497.912 142.167 462.217 136.04 413.598 136.04Z" fill="#191B1D"/>
<path d="M199.973 204.022L168.941 308.18C168.941 308.18 232.95 316.44 232.95 314.077C232.95 311.714 245.497 199.464 245.497 199.464L199.973 204.022Z" fill="white"/>
<path d="M229.729 315.437C218.918 315.437 188.241 311.714 168.815 309.163C168.665 309.142 168.521 309.089 168.393 309.008C168.265 308.927 168.156 308.819 168.073 308.693C167.99 308.566 167.935 308.423 167.911 308.274C167.888 308.124 167.896 307.971 167.937 307.825L198.968 203.667C199.026 203.466 199.142 203.287 199.303 203.153C199.463 203.019 199.66 202.936 199.868 202.915L245.412 198.356C245.566 198.342 245.721 198.362 245.866 198.417C246.011 198.471 246.142 198.558 246.248 198.67C246.36 198.775 246.446 198.907 246.497 199.052C246.548 199.198 246.563 199.353 246.541 199.506C242.212 238.191 233.994 311.903 233.994 314.015C233.975 314.357 233.826 314.679 233.576 314.914C232.35 315.378 231.034 315.557 229.729 315.437ZM170.216 307.302C192.465 310.146 227.01 314.098 231.861 313.408C232.656 304.375 242.84 213.203 244.241 200.635L200.704 205.006L170.216 307.302Z" fill="#191B1D"/>
<path d="M141.148 178.155C141.419 178.448 152.439 175.5 158.127 182.337C163.815 189.175 156.433 195.281 138.471 191.747C120.508 188.213 141.148 178.155 141.148 178.155Z" fill="white"/>
<path d="M147.945 193.818C144.692 193.785 141.45 193.442 138.263 192.793C133.077 191.768 130.401 190.095 130.087 187.649C129.48 182.923 138.807 178.134 140.689 177.193C140.906 177.12 141.141 177.12 141.358 177.193H142.048C144.976 176.838 153.884 175.709 158.944 181.773C161.202 184.449 161.683 187.189 160.345 189.489C158.609 192.228 154.114 193.818 147.945 193.818ZM141.379 179.18C137.301 181.271 131.927 184.951 132.22 187.272C132.22 188.046 133.307 189.51 138.681 190.576C150.831 192.96 156.937 190.744 158.484 188.13C158.854 187.243 158.937 186.262 158.724 185.325C158.51 184.388 158.01 183.541 157.292 182.902C152.984 177.758 145.226 178.72 142.32 179.096C141.923 179.18 141.63 179.18 141.379 179.18Z" fill="#191B1D"/>
<path d="M113.527 156.304C113.527 156.304 111.269 153.711 112.691 151.892C113.011 151.522 113.414 151.235 113.867 151.052C114.32 150.87 114.811 150.798 115.297 150.843C115.784 150.888 116.253 151.048 116.665 151.311C117.077 151.573 117.421 151.93 117.667 152.352C117.667 152.352 114.113 153.627 113.527 156.304Z" fill="white"/>
<path d="M113.527 157.37C113.374 157.372 113.222 157.341 113.081 157.28C112.941 157.219 112.815 157.128 112.711 157.015C111.666 155.802 110.286 153.209 111.854 151.243C112.205 150.783 112.657 150.409 113.176 150.151C113.694 149.894 114.265 149.76 114.844 149.759C115.557 149.771 116.257 149.949 116.889 150.28C117.52 150.61 118.066 151.083 118.483 151.662C118.597 151.795 118.677 151.955 118.713 152.126C118.75 152.298 118.742 152.476 118.692 152.645C118.648 152.812 118.564 152.965 118.448 153.093C118.331 153.22 118.185 153.318 118.023 153.376C117.186 153.669 114.949 154.84 114.572 156.534C114.532 156.728 114.438 156.908 114.302 157.052C114.165 157.196 113.991 157.299 113.799 157.349L113.527 157.37ZM114.886 151.913C114.632 151.916 114.382 151.977 114.155 152.089C113.927 152.201 113.727 152.362 113.569 152.561C113.45 152.79 113.387 153.045 113.387 153.303C113.387 153.562 113.45 153.816 113.569 154.046C114.199 153.273 114.964 152.621 115.827 152.122C115.538 151.995 115.219 151.952 114.907 151.996L114.886 151.913Z" fill="#191B1D"/>
<path d="M118.462 152.247C117.218 152.348 116.042 152.858 115.119 153.698C114.196 154.538 113.577 155.66 113.359 156.889L158.213 215.251C158.49 212.455 159.698 209.832 161.643 207.803C163.588 205.775 166.158 204.458 168.941 204.064L118.462 152.247Z" fill="white"/>
<path d="M158.191 216.317C158.029 216.316 157.869 216.277 157.724 216.205C157.579 216.132 157.453 216.028 157.354 215.899L112.5 157.537C112.399 157.405 112.329 157.251 112.297 157.088C112.264 156.925 112.269 156.756 112.312 156.596C112.607 155.145 113.367 153.829 114.476 152.848C115.585 151.867 116.983 151.274 118.46 151.159C118.604 151.16 118.747 151.191 118.88 151.248C119.013 151.305 119.133 151.389 119.233 151.493L169.713 203.311C169.853 203.45 169.951 203.626 169.995 203.818C170.04 204.011 170.029 204.212 169.963 204.398C169.905 204.585 169.796 204.752 169.648 204.882C169.501 205.011 169.32 205.097 169.127 205.13C166.578 205.478 164.221 206.675 162.434 208.526C160.648 210.377 159.536 212.775 159.278 215.335C159.26 215.552 159.177 215.758 159.039 215.926C158.9 216.095 158.714 216.216 158.504 216.276L158.191 216.317ZM114.549 156.679L157.647 212.742C158.254 210.535 159.416 208.521 161.023 206.892C162.631 205.263 164.629 204.073 166.827 203.436L118.062 153.375C117.228 153.547 116.458 153.947 115.838 154.53C115.218 155.113 114.772 155.857 114.549 156.679Z" fill="#191B1D"/>
<path d="M158.213 215.251L173.52 223.197L175.422 221.42L168.94 204.064C168.94 204.064 157.021 202.872 158.213 215.251Z" fill="white"/>
<path d="M173.52 224.264C173.344 224.267 173.171 224.224 173.018 224.139L157.711 216.193C157.548 216.111 157.409 215.99 157.307 215.84C157.204 215.69 157.142 215.516 157.125 215.335C156.834 213.671 156.926 211.963 157.393 210.34C157.861 208.717 158.692 207.221 159.823 205.967C161.085 204.882 162.55 204.059 164.133 203.545C165.717 203.032 167.386 202.839 169.045 202.977C169.25 202.996 169.445 203.073 169.608 203.199C169.771 203.325 169.894 203.494 169.965 203.688L176.426 221.044C176.504 221.244 176.52 221.463 176.471 221.671C176.423 221.88 176.312 222.07 176.154 222.215L174.251 223.992C174.049 224.169 173.788 224.265 173.52 224.264ZM159.237 214.562L173.331 221.88L174.168 221.128L168.187 205.11C165.686 205.039 163.246 205.887 161.329 207.494C160.489 208.45 159.867 209.577 159.506 210.798C159.145 212.018 159.053 213.302 159.237 214.562Z" fill="#191B1D"/>
<path d="M173.52 223.197L176.447 226.334L177.827 224.766L175.422 221.42L173.52 223.197Z" fill="white"/>
<path d="M176.447 227.422C176.299 227.423 176.154 227.392 176.02 227.33C175.886 227.269 175.768 227.179 175.673 227.066L172.724 223.93C172.534 223.717 172.43 223.441 172.432 223.156C172.448 222.868 172.575 222.598 172.787 222.403L174.69 220.626C174.803 220.523 174.937 220.446 175.082 220.398C175.227 220.351 175.381 220.334 175.532 220.35C175.684 220.366 175.831 220.413 175.964 220.49C176.096 220.566 176.211 220.669 176.3 220.793L178.705 224.139C178.858 224.328 178.941 224.564 178.941 224.808C178.941 225.051 178.858 225.288 178.705 225.477L177.325 227.045C177.229 227.163 177.107 227.258 176.97 227.323C176.833 227.388 176.682 227.422 176.53 227.422H176.447ZM175.046 223.24L176.426 224.724L175.234 223.072L175.046 223.24Z" fill="#191B1D"/>
<path d="M143.994 219.831C146.462 214.833 152.651 204.231 154.073 199.631C158.005 187.084 134.982 175.332 127.537 175.332C120.093 175.332 104.535 201.345 104.535 215.251C104.535 229.157 156.081 335.636 156.081 335.636L205.535 313.01L143.994 219.831Z" fill="white"/>
<path d="M156.141 336.723C155.94 336.723 155.742 336.666 155.572 336.558C155.402 336.451 155.266 336.298 155.179 336.116C153.088 331.767 103.508 229.219 103.508 215.251C103.508 201.282 119.233 174.244 127.535 174.244C133.264 174.244 146.584 180.35 152.628 188.464C153.966 190.023 154.9 191.888 155.348 193.893C155.797 195.899 155.746 197.984 155.2 199.965C153.206 204.895 150.872 209.681 148.216 214.289C147.107 216.38 146.124 218.262 145.33 219.746L206.578 312.382C206.664 312.514 206.721 312.662 206.746 312.816C206.771 312.971 206.764 313.13 206.725 313.281C206.68 313.428 206.604 313.563 206.503 313.679C206.402 313.794 206.278 313.887 206.139 313.951L156.664 336.618C156.507 336.712 156.322 336.749 156.141 336.723ZM127.535 176.398C120.989 176.398 105.683 201.491 105.683 215.251C105.683 228.048 151.54 323.59 156.643 334.234L204.006 312.529L143.092 220.52C143.001 220.354 142.953 220.167 142.953 219.976C142.953 219.786 143.001 219.599 143.092 219.433C143.887 217.844 145.037 215.69 146.292 213.348C148.878 208.859 151.155 204.199 153.109 199.4C153.55 197.743 153.577 196.002 153.186 194.332C152.796 192.662 152.001 191.113 150.871 189.823C145.037 181.898 132.344 176.398 127.535 176.398Z" fill="#191B1D"/>
<path d="M407.115 240.909L468.07 225.372C465.979 222.424 441.388 144.363 415.458 131.586C392.77 116.53 338.966 106.493 291.435 109.902C291.435 109.902 278.889 109.442 256.89 118.161C203.316 139.449 192.986 213.578 192.986 213.578L234.808 228.028C234.808 228.028 226.82 323.905 219.271 374.028C219.271 374.028 311.74 392.116 446.365 369.846C446.469 369.804 407.366 255.087 407.115 240.909Z" fill="#FFC200"/>
<path d="M402.099 133.74C394.028 142.105 387.734 152.142 378.825 160.025C359.629 177.005 334.515 190.451 308.188 188.82C277.156 186.896 250.327 165.692 243.594 134.807C239.412 115.443 243.761 97.4598 258.734 83.784C269.085 74.3322 282.342 68.5608 295.892 64.9641C331.88 55.3241 372.259 60.4473 402.978 81.5674C407.997 84.6568 412.234 88.865 415.357 93.8631C423.031 107.769 414.207 122.072 404.253 131.628C403.584 132.277 402.873 133.008 402.099 133.74Z" fill="#FFC200"/>
<path d="M296.225 155.655C295.912 155.655 290.14 162.681 289.848 162.785C293.131 175.164 296.602 191.287 310.612 192.876C339.03 196.117 343.338 158.227 348.691 140.348C329.014 145.868 315.129 148.085 296.225 155.655Z" fill="#191B1D"/>
<path d="M313.939 194.131C312.793 194.122 311.649 194.052 310.51 193.922C296.52 192.333 292.568 177.193 289.369 165.086L288.825 162.995C288.775 162.789 288.788 162.574 288.862 162.376C288.937 162.178 289.07 162.007 289.243 161.886C289.578 161.573 291.105 159.795 292.213 158.499C295.454 154.777 295.496 154.756 295.83 154.609C307.405 150.135 319.285 146.494 331.379 143.715C336.711 142.377 342.211 140.996 348.317 139.282C348.497 139.232 348.686 139.23 348.866 139.278C349.047 139.326 349.211 139.421 349.342 139.554C349.467 139.689 349.556 139.854 349.6 140.033C349.644 140.213 349.641 140.4 349.593 140.578C348.798 143.234 348.024 146.371 347.188 149.695C342.859 167.595 336.23 194.11 313.939 194.131ZM290.937 163.12L291.314 164.563C294.513 176.691 298.11 190.43 310.677 191.747C333.951 194.403 340.454 168.243 345.222 149.131C345.87 146.517 346.498 144.008 347.125 141.749C341.709 143.234 336.67 144.489 331.923 145.701C319.939 148.422 308.169 152.014 296.709 156.45C296.29 156.868 294.827 158.541 293.739 159.816C292.276 161.698 291.46 162.618 291 163.12H290.937Z" fill="#191B1D"/>
<path d="M323.741 9.80098C319.559 9.63369 316.882 11.453 313.285 12.7494C306.28 15.2169 303.018 9.36185 296.996 6.24611C287.514 1.31668 276.618 -0.179156 266.159 2.01259C255.699 4.20435 246.321 9.94858 239.616 18.2699C235.443 23.2117 232.741 29.2249 231.816 35.6261C230.938 42.8613 232.966 50.2638 231.711 57.4153C230.945 61.5226 229.145 65.367 226.481 68.5863C223.818 71.8057 220.379 74.2941 216.488 75.817C223.183 76.3337 229.916 75.6971 236.396 73.935C234.533 76.1485 232.219 77.9376 229.607 79.182C226.996 80.4263 224.148 81.0972 221.256 81.1493C227.924 86.2769 236.118 89.0229 244.53 88.9491L229.788 92.3994C242.334 100.45 257.62 102.855 272.404 102.186C301.847 100.659 351.155 88.6145 350.298 50.4729C349.817 35.8561 341.787 10.6374 323.741 9.80098Z" fill="white"/>
<path d="M267.348 103.419C256.077 103.419 241.648 101.328 229.144 93.3404C228.972 93.2261 228.837 93.0645 228.756 92.8753C228.674 92.686 228.649 92.4771 228.684 92.2739C228.727 92.075 228.823 91.8917 228.963 91.7441C229.104 91.5966 229.282 91.4905 229.478 91.4375L237.675 89.5346C231.436 88.4716 225.55 85.9019 220.528 82.0484C220.353 81.9168 220.223 81.7332 220.158 81.5237C220.092 81.3143 220.094 81.0895 220.164 80.8813C220.233 80.6732 220.366 80.4921 220.544 80.3638C220.722 80.2355 220.936 80.1664 221.156 80.1664C225.449 80.096 229.595 78.5865 232.929 75.8797C227.471 77.0113 221.881 77.3633 216.325 76.9252C216.09 76.9038 215.869 76.8032 215.698 76.6399C215.527 76.4766 215.416 76.2602 215.384 76.026C215.346 75.7893 215.392 75.5466 215.514 75.3402C215.637 75.1339 215.827 74.977 216.053 74.8969C219.791 73.4586 223.099 71.0875 225.661 68.0091C228.224 64.9307 229.955 61.2477 230.691 57.3107C231.194 53.552 231.236 49.7459 230.817 45.9769C230.49 42.4994 230.49 38.999 230.817 35.5214C231.768 28.9217 234.549 22.7205 238.846 17.6216C245.703 9.11241 255.295 3.23996 265.992 1.00229C276.688 -1.23539 287.83 0.299773 297.523 5.34687C299.304 6.31971 300.997 7.44621 302.583 8.71354C305.971 11.2856 308.647 13.314 313.039 11.7875C313.98 11.4529 314.858 11.0765 315.715 10.721C318.267 9.42487 321.092 8.75807 323.954 8.77627C342.063 9.57089 351.138 34.1204 351.431 50.4728C351.808 67.808 342.335 81.4629 323.264 91.0192C304.193 100.576 281.442 102.792 272.555 103.252C270.798 103.378 269.105 103.419 267.348 103.419ZM232.427 92.964C245.935 100.806 261.43 101.851 272.283 101.328C280.982 100.868 303.231 98.7981 322.156 89.3045C340.453 80.1455 349.528 67.1598 349.173 50.6819C348.817 35.1241 340.474 11.7666 323.703 10.951C321.152 10.9688 318.64 11.5772 316.363 12.7285C315.464 13.1049 314.544 13.5022 313.561 13.8367C308.145 15.7396 304.758 13.1676 301.182 10.4492C299.696 9.25864 298.108 8.20199 296.435 7.2916C287.173 2.45924 276.521 0.987206 266.295 3.1262C256.069 5.2652 246.901 10.8829 240.352 19.0227C236.317 23.7857 233.689 29.5784 232.761 35.7515C232.448 39.0829 232.448 42.4364 232.761 45.7678C233.186 49.7052 233.13 53.6797 232.594 57.6035C231.933 61.1856 230.515 64.5852 228.434 67.5748C226.353 70.5645 223.658 73.0751 220.528 74.9387C225.743 74.9319 230.933 74.2287 235.961 72.8476C236.177 72.7848 236.408 72.7936 236.619 72.8728C236.83 72.9519 237.01 73.0971 237.132 73.2867C237.259 73.467 237.328 73.6826 237.328 73.9036C237.328 74.1246 237.259 74.3402 237.132 74.5205C233.822 78.4579 229.204 81.0711 224.125 81.8811C230.173 85.8245 237.252 87.8907 244.471 87.8198C244.73 87.8132 244.981 87.9044 245.175 88.075C245.368 88.2455 245.491 88.483 245.517 88.7399C245.55 88.9959 245.487 89.255 245.34 89.4673C245.193 89.6796 244.973 89.8302 244.722 89.8901L232.427 92.964Z" fill="#191B1D"/>
<path d="M287.756 126.777L289.847 162.786C289.847 162.786 306.304 181.606 327.486 170.042C348.669 158.478 347.854 140.139 347.854 140.139L333.948 72.534C333.948 72.534 314.731 68.1009 309.838 30.252C293.444 43.2319 273.852 51.5471 253.127 54.3205C253.127 54.3205 253.503 96.6653 260.969 113.499C268.434 130.332 287.756 126.777 287.756 126.777Z" fill="white"/>
<path d="M313.582 174.831C299.195 174.831 289.178 163.643 289.053 163.476C288.898 163.303 288.809 163.081 288.802 162.849L286.711 127.948C282.299 128.387 266.574 128.806 259.945 113.854C252.48 97.1254 252.04 55.9935 252.02 54.2578C252.021 54.0053 252.113 53.7616 252.277 53.5702C252.442 53.3787 252.669 53.2519 252.919 53.2123C273.424 50.4165 292.813 42.2019 309.086 29.4156C309.229 29.2898 309.405 29.2058 309.593 29.1726C309.781 29.1395 309.974 29.1584 310.152 29.2274C310.328 29.2954 310.482 29.4086 310.599 29.5555C310.717 29.7024 310.793 29.8778 310.821 30.0638C313.289 49.2183 319.52 59.4438 324.309 64.6715C326.896 67.7942 330.298 70.1393 334.137 71.4467C334.329 71.4971 334.503 71.6001 334.64 71.7442C334.777 71.8883 334.87 72.0677 334.911 72.2622L348.837 139.93C348.837 140.286 349.465 159.21 327.926 170.962C323.55 173.446 318.614 174.778 313.582 174.831ZM290.851 162.284C292.942 164.563 307.915 179.494 327.006 169.059C347.332 157.935 346.83 140.265 346.83 140.097L333.05 73.1823C329.578 72.0322 313.853 65.0897 309.065 32.0504C292.99 44.1925 274.122 52.102 254.194 55.0525C254.194 61.3258 255.24 97.8364 261.91 112.913C268.957 128.764 286.815 125.773 287.568 125.648C287.713 125.62 287.862 125.622 288.006 125.654C288.15 125.687 288.286 125.749 288.405 125.836C288.519 125.932 288.613 126.05 288.681 126.183C288.749 126.316 288.79 126.461 288.802 126.61L290.851 162.284Z" fill="#191B1D"/>
<path d="M326.109 91.4791C331.022 92.219 336.028 90.9863 340.035 88.0497C342.741 85.9067 344.851 83.1042 346.162 79.9111C347.473 76.7179 347.941 73.2414 347.522 69.8153C347.393 67.2545 346.677 64.7576 345.43 62.5174C344.82 61.3969 343.976 60.4211 342.954 59.6561C341.933 58.8912 340.759 58.3551 339.513 58.0842C336.425 57.8922 333.358 58.7066 330.772 60.4053C326.715 62.4964 326.59 64.8176 324.373 68.247C324.624 67.9333 324.812 67.055 325.063 66.7414" fill="white"/>
<path d="M328.909 92.7545C327.915 92.7507 326.922 92.6738 325.939 92.5245C325.663 92.4783 325.416 92.3251 325.252 92.0981C325.087 91.8712 325.019 91.5887 325.061 91.3117C325.081 91.1763 325.129 91.0464 325.2 90.9296C325.271 90.8127 325.365 90.7114 325.476 90.6315C325.587 90.5515 325.713 90.4947 325.847 90.4643C325.98 90.4339 326.118 90.4305 326.253 90.4543C330.886 91.1361 335.6 89.9557 339.364 87.1713C341.926 85.1329 343.921 82.4692 345.155 79.4368C346.389 76.4043 346.822 73.1052 346.411 69.857C346.328 67.4579 345.691 65.1105 344.55 62.9982C344.011 62.0193 343.27 61.1663 342.376 60.4958C341.481 59.8252 340.455 59.3524 339.364 59.1087C336.771 58.6487 334.178 59.8406 331.293 61.3253C329.31 62.2899 327.758 63.9604 326.943 66.0094C326.504 66.804 326.023 67.7032 325.375 68.686C325.331 68.7709 325.275 68.8484 325.208 68.916C325.039 69.124 324.796 69.2579 324.531 69.2892C324.265 69.3204 323.998 69.2465 323.786 69.0833C323.565 68.9274 323.414 68.6904 323.367 68.424C323.32 68.1576 323.38 67.8835 323.535 67.6613C323.535 67.6613 323.535 67.3895 323.681 67.2431C323.804 66.8646 323.98 66.5054 324.204 66.1766C324.312 66.0499 324.448 65.9497 324.601 65.8839L324.999 65.1311C326.032 62.7053 327.902 60.7314 330.268 59.5688C332.736 58.2932 336.144 56.5367 339.636 57.1431C341.056 57.4248 342.397 58.0122 343.567 58.8644C344.737 59.7166 345.708 60.8132 346.411 62.0781C347.693 64.4697 348.409 67.124 348.502 69.8361C348.944 73.436 348.449 77.0891 347.064 80.4413C345.679 83.7935 343.452 86.7311 340.598 88.9696C337.203 91.4413 333.108 92.7671 328.909 92.7545Z" fill="#191B1D"/>
<path d="M288.843 145.722C292.961 145.426 296.945 144.128 300.447 141.941C303.949 139.755 306.864 136.746 308.939 133.176C316.32 120.859 313.372 112.976 313.372 112.976C313.372 112.976 303.418 125.669 287.756 126.693L288.843 145.722Z" fill="#191B1D"/>
<path d="M288.846 146.747C288.581 146.747 288.327 146.645 288.136 146.462C287.945 146.279 287.832 146.029 287.821 145.764L286.713 126.944C286.704 126.807 286.723 126.669 286.768 126.539C286.813 126.409 286.883 126.289 286.974 126.186C287.065 126.083 287.176 125.999 287.3 125.939C287.424 125.879 287.558 125.844 287.696 125.836C302.689 124.874 312.454 112.662 312.559 112.537C312.672 112.389 312.823 112.274 312.996 112.204C313.169 112.134 313.357 112.112 313.542 112.139C313.724 112.171 313.895 112.249 314.038 112.366C314.181 112.483 314.291 112.636 314.357 112.808C314.483 113.143 317.389 121.298 309.82 133.908C307.665 137.616 304.63 140.737 300.983 142.995C297.336 145.252 293.189 146.577 288.909 146.852L288.846 146.747ZM288.846 127.718L289.829 144.593C293.564 144.133 297.143 142.823 300.293 140.764C303.443 138.705 306.08 135.952 308 132.716C312.998 124.351 313.124 118.245 312.747 115.318C306.486 122.133 298.023 126.523 288.846 127.718Z" fill="#191B1D"/>
<path d="M284.997 69.5435C284.997 69.5435 277.155 90.2035 280.71 92.671C284.265 95.1385 291.772 91.2073 291.772 91.2073" fill="white"/>
<path d="M283.801 94.5327C282.493 94.5927 281.198 94.2417 280.1 93.529C276.168 90.8106 282.191 74.2073 283.989 69.1677C284.088 68.9109 284.283 68.7033 284.534 68.5898C284.784 68.4763 285.069 68.466 285.327 68.5613C285.457 68.61 285.576 68.6839 285.676 68.7788C285.777 68.8737 285.858 68.9877 285.915 69.1141C285.971 69.2406 286.002 69.377 286.005 69.5154C286.008 69.6538 285.984 69.7915 285.934 69.9205C282.295 79.5186 279.66 90.6224 281.291 91.7934C283.78 93.5081 289.342 91.2915 291.266 90.2878C291.514 90.1612 291.801 90.1363 292.066 90.2183C292.332 90.3004 292.555 90.4829 292.688 90.7269C292.812 90.9739 292.833 91.2598 292.747 91.5224C292.661 91.7849 292.474 92.0026 292.228 92.128C289.623 93.523 286.749 94.343 283.801 94.5327Z" fill="#191B1D"/>
<path d="M300.42 69.0205C302.014 68.5056 302.715 66.2619 301.987 64.0091C301.259 61.7563 299.377 60.3475 297.784 60.8625C296.19 61.3775 295.489 63.6212 296.217 65.8739C296.945 68.1267 298.827 69.5355 300.42 69.0205Z" fill="#191B1D"/>
<path d="M271.162 75.862C272.837 75.8392 274.168 73.9017 274.136 71.5344C274.103 69.1671 272.72 67.2665 271.045 67.2893C269.371 67.3121 268.04 69.2496 268.072 71.6169C268.104 73.9842 269.488 75.8848 271.162 75.862Z" fill="#191B1D"/>
<path d="M287.487 119.208C285.479 119.26 283.504 118.683 281.841 117.556C275.254 112.746 274.773 102.124 274.752 101.664C274.746 101.416 274.827 101.175 274.979 100.98C275.132 100.786 275.347 100.65 275.589 100.597C302.648 94.6793 302.94 94.8884 303.421 95.2439C303.541 95.3341 303.641 95.447 303.716 95.5762C303.792 95.7055 303.841 95.8484 303.86 95.9967C304.279 100.213 303.699 104.468 302.167 108.418C301.245 110.839 299.786 113.02 297.898 114.795C296.011 116.57 293.745 117.893 291.272 118.664C290.042 119.02 288.768 119.203 287.487 119.208ZM276.927 102.479C277.178 105.009 278.307 112.412 283.033 115.841C284.158 116.532 285.422 116.965 286.735 117.11C288.047 117.254 289.375 117.107 290.624 116.678C292.803 115.999 294.801 114.836 296.467 113.275C298.133 111.714 299.424 109.796 300.243 107.665C301.537 104.34 302.08 100.769 301.832 97.2096C298.235 97.8578 285.542 100.576 276.927 102.458V102.479Z" fill="#191B1D"/>
<path d="M301.203 108.083C297.188 117.785 287.13 120.106 282.383 116.74C283.449 113.038 285.394 109.191 289.012 107.79C292.981 106.436 297.303 106.54 301.203 108.083Z" fill="#191B1D"/>
<path d="M287.485 119.186C285.48 119.242 283.506 118.672 281.84 117.555C281.667 117.43 281.538 117.254 281.471 117.051C281.403 116.849 281.4 116.63 281.463 116.426C282.885 111.324 285.332 108.062 288.698 106.786C292.884 105.364 297.437 105.46 301.559 107.058C301.692 107.107 301.815 107.182 301.919 107.279C302.023 107.376 302.107 107.493 302.165 107.623C302.269 107.885 302.269 108.176 302.165 108.438C301.238 110.854 299.777 113.029 297.89 114.8C296.003 116.571 293.74 117.892 291.27 118.664C290.039 119.012 288.765 119.187 287.485 119.186ZM283.68 116.238C285.854 117.265 288.34 117.415 290.622 116.656C292.625 116.044 294.476 115.016 296.054 113.639C297.632 112.263 298.902 110.569 299.781 108.668C296.428 107.554 292.804 107.554 289.451 108.668C286.879 109.714 284.997 112.265 283.68 116.238Z" fill="#191B1D"/>
<path d="M252.144 86.2304C250.713 86.23 249.326 85.7403 248.211 84.8427C247.097 83.9451 246.323 82.6935 246.018 81.2954L243.822 71.3209C243.467 69.696 243.773 67.9968 244.671 66.5969C245.569 65.1971 246.986 64.2111 248.61 63.8557L271.926 58.7325C272.732 58.5539 273.566 58.5362 274.379 58.6804C275.191 58.8246 275.968 59.1278 276.663 59.5727C277.359 60.0175 277.96 60.5953 278.431 61.2729C278.903 61.9504 279.237 62.7144 279.412 63.5211L281.503 73.4956C281.842 75.0996 281.539 76.7723 280.66 78.1558C279.78 79.5393 278.394 80.5236 276.799 80.8981L253.483 86.0004C253.047 86.1289 252.598 86.2061 252.144 86.2304ZM273.285 60.7608C272.987 60.7299 272.685 60.7299 272.386 60.7608L249.091 65.8631C248.028 66.1083 247.103 66.7595 246.513 67.6776C245.923 68.5957 245.715 69.7081 245.934 70.7772L248.13 80.8981C248.379 81.9533 249.029 82.8702 249.942 83.4554C250.855 84.0405 251.96 84.2483 253.023 84.0348L276.338 78.807C277.394 78.5572 278.311 77.9072 278.896 76.9943C279.481 76.0815 279.689 74.977 279.475 73.9139L277.384 63.9393C277.174 63.0279 276.664 62.2133 275.936 61.6257C275.208 61.0382 274.304 60.7116 273.369 60.6981L273.285 60.7608Z" fill="#191B1D"/>
<path d="M293.694 77.1347C292.492 77.1316 291.316 76.7832 290.306 76.131C288.909 75.2347 287.924 73.821 287.567 72.1997L285.476 62.2252C285.117 60.6013 285.418 58.9015 286.312 57.4993C286.756 56.8013 287.334 56.1981 288.013 55.7244C288.691 55.2507 289.456 54.9158 290.264 54.7391L313.559 49.6368C314.365 49.4582 315.199 49.4405 316.012 49.5847C316.824 49.7289 317.601 50.0321 318.296 50.477C318.992 50.9218 319.593 51.4996 320.064 52.1772C320.536 52.8547 320.87 53.6187 321.045 54.4254L323.136 64.3999C323.5 66.0132 323.212 67.7048 322.335 69.1068C321.458 70.5087 320.062 71.5076 318.452 71.8861L295.158 76.9883C294.675 77.0836 294.185 77.1327 293.694 77.1347ZM314.835 51.6233C314.532 51.6271 314.231 51.6621 313.936 51.7279L290.641 56.8511C290.11 56.9624 289.608 57.1789 289.162 57.4878C288.717 57.7967 288.338 58.1916 288.048 58.6494C287.459 59.5738 287.256 60.6927 287.483 61.7651L289.679 71.7397C289.929 72.7949 290.579 73.7117 291.492 74.2969C292.404 74.8821 293.509 75.0899 294.572 74.8763L317.888 69.7741C318.954 69.5362 319.884 68.8907 320.481 67.9757C321.063 67.0483 321.258 65.9297 321.024 64.86L318.933 54.8854C318.724 53.9562 318.203 53.1264 317.458 52.5332C316.713 51.94 315.787 51.619 314.835 51.6233Z" fill="#191B1D"/>
<path d="M278.347 64.8384C278.156 64.8424 277.967 64.7917 277.804 64.692C277.56 64.5478 277.382 64.3142 277.308 64.0408C277.233 63.7674 277.269 63.4759 277.406 63.2282C278.389 61.5344 281.588 58.8787 286.837 60.9907C287.114 61.0961 287.338 61.3073 287.46 61.5779C287.582 61.8485 287.591 62.1563 287.485 62.4336C287.38 62.7109 287.169 62.935 286.898 63.0566C286.628 63.1781 286.32 63.1872 286.042 63.0818C281.358 61.1999 279.476 64.0647 279.288 64.3992C279.179 64.5437 279.036 64.6593 278.872 64.7358C278.708 64.8124 278.528 64.8476 278.347 64.8384Z" fill="#191B1D"/>
<path d="M70.0303 343.206H499.96L568.946 469.194H1.04492L70.0303 343.206Z" fill="white"/>
<path d="M568.948 470.241H1.04675C0.866696 470.24 0.689814 470.193 0.532586 470.105C0.375358 470.018 0.242904 469.892 0.14758 469.739C0.0597233 469.579 0.0136719 469.399 0.0136719 469.216C0.0136719 469.033 0.0597233 468.853 0.14758 468.693L69.1539 342.704C69.2424 342.538 69.3751 342.399 69.5374 342.303C69.6998 342.207 69.8854 342.158 70.074 342.161H499.941C500.13 342.158 500.316 342.207 500.478 342.303C500.64 342.399 500.773 342.538 500.861 342.704L569.868 468.693C569.956 468.853 570.002 469.033 570.002 469.216C570.002 469.399 569.956 469.579 569.868 469.739C569.771 469.895 569.635 470.023 569.474 470.111C569.312 470.198 569.131 470.243 568.948 470.241ZM2.82419 468.15H567.17L499.335 344.252H70.6595L2.82419 468.15Z" fill="#D1D3D4"/>
<path d="M76.7012 261.925L77.6213 257.952C79.7124 253.979 82.0335 251.302 87.4285 251.302H292.084C294.559 251.306 296.965 252.111 298.944 253.596C300.922 255.081 302.367 257.167 303.063 259.541L336.332 373.841C337.191 376.292 337.082 378.978 336.03 381.351C334.977 383.725 333.058 385.609 330.665 386.617L327.048 387.475L76.7012 261.925Z" fill="white"/>
<path d="M327.049 388.52C326.891 388.515 326.734 388.479 326.589 388.415L76.2427 262.824C76.0315 262.72 75.8622 262.548 75.7632 262.335C75.6643 262.121 75.6416 261.881 75.699 261.653L76.6191 257.68C76.61 257.589 76.61 257.498 76.6191 257.408C78.7102 253.623 81.115 250.214 87.3465 250.214H292.002C294.701 250.225 297.324 251.106 299.483 252.726C301.641 254.345 303.22 256.618 303.984 259.206L337.275 373.652C338.21 376.353 338.082 379.309 336.917 381.918C335.751 384.528 333.636 386.597 331.001 387.704L327.258 388.603L327.049 388.52ZM77.9783 261.36L327.258 386.366L330.5 385.613C335.539 383.647 336.585 378.273 335.393 374.133L302.123 259.833C301.485 257.68 300.171 255.789 298.374 254.44C296.578 253.092 294.395 252.358 292.149 252.347H87.4301C82.8088 252.347 80.8222 254.438 78.6057 258.328L77.9783 261.36Z" fill="#191B1D"/>
<path d="M327.049 387.475H118.211C116.792 387.459 115.416 386.987 114.286 386.128C113.156 385.27 112.333 384.07 111.938 382.707L76.7863 261.925C76.6537 261.462 76.6304 260.974 76.7182 260.5C76.806 260.026 77.0025 259.579 77.2923 259.194C77.5821 258.809 77.9573 258.497 78.3884 258.281C78.8194 258.066 79.2946 257.953 79.7766 257.952H294.198L330.52 382.854C330.68 383.392 330.712 383.961 330.613 384.514C330.513 385.067 330.286 385.589 329.948 386.038C329.611 386.488 329.173 386.852 328.669 387.101C328.166 387.351 327.611 387.479 327.049 387.475Z" fill="#191B1D"/>
<path d="M327.047 388.52H118.208C116.551 388.512 114.941 387.971 113.615 386.977C112.29 385.983 111.319 384.588 110.848 383L75.6964 262.218C75.5267 261.6 75.501 260.952 75.6215 260.323C75.742 259.694 76.0053 259.101 76.3912 258.59C76.7772 258.078 77.2754 257.663 77.8474 257.374C78.4194 257.086 79.05 256.933 79.6904 256.927H294.195C294.417 256.924 294.634 256.994 294.812 257.126C294.989 257.258 295.118 257.446 295.178 257.659L331.522 382.561C331.723 383.255 331.759 383.986 331.629 384.697C331.499 385.408 331.205 386.079 330.771 386.657C330.337 387.235 329.775 387.704 329.128 388.028C328.482 388.351 327.769 388.52 327.047 388.52ZM79.6904 258.998C79.3722 259.003 79.0594 259.08 78.7757 259.224C78.492 259.368 78.2449 259.575 78.0533 259.83C77.8617 260.084 77.7307 260.378 77.6701 260.691C77.6096 261.003 77.6211 261.325 77.7039 261.632L112.834 382.414C113.18 383.572 113.89 384.587 114.857 385.311C115.825 386.034 117 386.426 118.208 386.429H327.047C327.451 386.432 327.85 386.34 328.213 386.163C328.575 385.985 328.892 385.725 329.138 385.405C329.374 385.085 329.533 384.714 329.602 384.322C329.671 383.93 329.648 383.528 329.535 383.146L293.359 258.998H79.6904Z" fill="#191B1D"/>
<path d="M292.021 336.012L279.328 389.983C278.656 392.872 277.025 395.448 274.7 397.29C272.376 399.132 269.496 400.131 266.53 400.125H134.435C132.453 400.124 130.496 399.675 128.711 398.811C126.926 397.947 125.36 396.691 124.129 395.137C122.898 393.582 122.035 391.77 121.604 389.834C121.172 387.899 121.184 385.891 121.638 383.961L132.825 336.012H121.889L111.182 381.494C110.374 384.996 110.366 388.635 111.159 392.141C111.952 395.646 113.526 398.928 115.762 401.742C117.999 404.555 120.841 406.828 124.078 408.391C127.315 409.954 130.862 410.767 134.456 410.769H266.635C271.991 410.765 277.189 408.958 281.393 405.639C285.596 402.319 288.559 397.681 289.804 392.472L303.062 336.012H292.021Z" fill="white"/>
<path d="M266.531 411.961H134.436C130.675 411.96 126.963 411.109 123.578 409.471C120.192 407.833 117.221 405.451 114.886 402.502C112.551 399.554 110.913 396.116 110.094 392.446C109.276 388.775 109.297 384.967 110.158 381.306L120.844 335.803C120.9 335.575 121.032 335.372 121.218 335.228C121.404 335.084 121.633 335.007 121.868 335.009H132.909C133.066 335.011 133.22 335.048 133.361 335.116C133.502 335.185 133.626 335.284 133.725 335.406C133.821 335.529 133.888 335.671 133.92 335.824C133.953 335.976 133.95 336.133 133.913 336.284L122.642 384.233C122.226 386.011 122.218 387.86 122.616 389.642C123.015 391.424 123.811 393.093 124.945 394.524C126.079 395.956 127.521 397.113 129.165 397.909C130.808 398.705 132.61 399.119 134.436 399.122H266.614C269.347 399.127 272.001 398.205 274.143 396.508C276.285 394.81 277.789 392.437 278.408 389.775L291.101 335.803C291.153 335.577 291.281 335.375 291.463 335.23C291.646 335.086 291.872 335.008 292.105 335.009H303.146C303.302 335.012 303.455 335.049 303.595 335.118C303.735 335.187 303.858 335.286 303.956 335.407C304.054 335.529 304.124 335.67 304.161 335.822C304.198 335.974 304.201 336.131 304.17 336.284L290.892 392.744C289.615 398.237 286.508 403.131 282.08 406.624C277.653 410.116 272.169 411.999 266.531 411.961ZM122.6 337.1L112.145 381.787C111.351 385.145 111.33 388.639 112.081 392.007C112.832 395.375 114.337 398.529 116.483 401.232C118.628 403.935 121.358 406.116 124.467 407.612C127.577 409.108 130.985 409.88 134.436 409.87H266.614C271.771 409.885 276.78 408.149 280.822 404.947C284.863 401.745 287.699 397.266 288.863 392.242L301.828 337.1H292.941L280.395 390.256C279.677 393.38 277.918 396.168 275.406 398.159C272.893 400.151 269.778 401.228 266.572 401.213H134.436C132.293 401.214 130.179 400.729 128.25 399.797C126.322 398.864 124.629 397.507 123.3 395.827C121.97 394.148 121.038 392.189 120.573 390.098C120.107 388.007 120.121 385.837 120.614 383.752L131.571 337.1H122.6Z" fill="#191B1D"/>
<path d="M462.365 225.958C462.365 225.958 481.059 308.974 465.753 330.178C450.446 351.382 343.549 348.036 343.549 348.036C343.549 348.036 326.214 368.842 311.158 367.462C296.102 366.082 304.884 337.601 322.596 325.745L320.149 315.854L414.395 300.735L401.849 241.076" fill="white"/>
<path d="M312.536 368.571C312.02 368.571 311.498 368.571 310.968 368.571C309.019 368.473 307.158 367.733 305.675 366.466C304.192 365.198 303.17 363.475 302.771 361.566C300.408 352.302 307.978 334.632 321.298 325.348L319.039 316.168C319.003 316.031 318.995 315.887 319.016 315.747C319.038 315.606 319.089 315.472 319.165 315.352C319.244 315.229 319.348 315.125 319.471 315.045C319.593 314.966 319.731 314.914 319.876 314.892L413.034 299.941L400.697 241.39C400.669 241.255 400.669 241.117 400.695 240.982C400.721 240.847 400.773 240.719 400.849 240.604C400.925 240.49 401.022 240.391 401.136 240.314C401.25 240.237 401.378 240.184 401.512 240.156C401.646 240.126 401.784 240.122 401.919 240.146C402.053 240.169 402.182 240.219 402.297 240.293C402.412 240.367 402.511 240.464 402.588 240.577C402.665 240.69 402.719 240.817 402.746 240.951L415.293 300.61C415.324 300.75 415.325 300.895 415.296 301.035C415.267 301.176 415.209 301.309 415.126 301.425C415.047 301.542 414.945 301.641 414.826 301.717C414.707 301.792 414.574 301.843 414.435 301.865L321.319 316.816L323.41 325.599C323.463 325.804 323.452 326.021 323.377 326.219C323.302 326.418 323.168 326.588 322.992 326.707C310.194 335.28 302.52 352.532 304.715 361.105C304.997 362.583 305.77 363.923 306.909 364.906C308.048 365.889 309.486 366.458 310.989 366.521C325.313 367.86 342.355 347.702 342.481 347.472C342.582 347.349 342.71 347.252 342.855 347.187C343 347.121 343.158 347.09 343.317 347.095C344.384 347.095 449.963 350.169 464.726 329.655C479.49 309.142 461.381 227.191 461.192 226.292C461.162 226.155 461.159 226.013 461.184 225.875C461.209 225.736 461.26 225.604 461.336 225.486C461.412 225.367 461.51 225.265 461.625 225.184C461.741 225.104 461.871 225.047 462.008 225.017C462.145 224.986 462.287 224.984 462.426 225.008C462.564 225.033 462.696 225.085 462.815 225.16C462.933 225.236 463.035 225.334 463.116 225.45C463.196 225.565 463.253 225.695 463.284 225.832C464.057 229.241 481.894 309.476 466.483 330.889C451.427 351.8 352.748 349.458 343.819 349.186C341.456 351.946 326.547 368.571 312.536 368.571Z" fill="#191B1D"/>
<path d="M350.216 184.847C350.055 184.845 349.896 184.801 349.756 184.722C349.628 184.663 349.513 184.58 349.417 184.476C349.322 184.372 349.249 184.25 349.202 184.118C349.155 183.985 349.136 183.844 349.145 183.703C349.154 183.563 349.191 183.425 349.254 183.3C364.435 151.933 403.414 130.834 403.811 130.625C403.934 130.556 404.069 130.513 404.209 130.498C404.349 130.483 404.491 130.496 404.626 130.537C404.761 130.578 404.886 130.646 404.994 130.736C405.101 130.827 405.19 130.938 405.254 131.064C405.323 131.188 405.367 131.326 405.382 131.467C405.397 131.609 405.384 131.752 405.343 131.889C405.302 132.025 405.234 132.152 405.144 132.262C405.053 132.371 404.941 132.462 404.815 132.528C404.438 132.737 366.067 153.439 351.199 184.241C351.107 184.422 350.966 184.575 350.793 184.682C350.619 184.789 350.42 184.846 350.216 184.847Z" fill="#191B1D"/>
<path d="M285.769 183.362C285.617 183.394 285.46 183.394 285.309 183.362C248.882 166.634 244.469 129.872 244.428 129.517C244.398 129.231 244.483 128.946 244.663 128.722C244.843 128.499 245.104 128.356 245.389 128.325C245.53 128.307 245.672 128.318 245.808 128.356C245.944 128.394 246.071 128.458 246.182 128.546C246.293 128.633 246.386 128.742 246.454 128.866C246.523 128.989 246.566 129.125 246.581 129.266C246.581 129.621 250.931 165.191 286.312 181.209C286.571 181.327 286.773 181.543 286.874 181.808C286.976 182.074 286.969 182.369 286.856 182.63C286.776 182.852 286.628 183.043 286.432 183.174C286.237 183.306 286.004 183.372 285.769 183.362Z" fill="#191B1D"/>
<path d="M119.798 230.767C119.571 230.702 119.371 230.565 119.229 230.376C119.087 230.188 119.01 229.958 119.01 229.722C119.01 229.485 119.087 229.255 119.229 229.067C119.371 228.878 119.571 228.741 119.798 228.676C135.565 228.195 143.219 219.287 143.302 219.203C143.391 219.094 143.501 219.004 143.625 218.938C143.749 218.872 143.885 218.831 144.025 218.817C144.165 218.803 144.306 218.818 144.44 218.859C144.575 218.9 144.7 218.967 144.808 219.057C145.029 219.24 145.169 219.504 145.196 219.79C145.224 220.076 145.137 220.361 144.954 220.583C144.62 220.981 136.59 230.328 119.861 230.83L119.798 230.767Z" fill="#191B1D"/>
<path d="M401.721 242.143C401.48 242.145 401.246 242.065 401.056 241.917C400.866 241.769 400.732 241.561 400.675 241.327C400.675 240.951 390.826 202.412 389.467 179.305C389.458 179.165 389.478 179.025 389.523 178.892C389.569 178.759 389.641 178.637 389.734 178.532C389.827 178.427 389.941 178.342 390.067 178.281C390.193 178.219 390.33 178.184 390.471 178.176C390.756 178.159 391.036 178.254 391.251 178.442C391.467 178.63 391.599 178.895 391.621 179.18C392.98 202.077 402.683 240.407 402.766 240.804C402.836 241.081 402.794 241.375 402.65 241.622C402.505 241.868 402.269 242.048 401.992 242.122L401.721 242.143Z" fill="#191B1D"/>
<path d="M233.177 249.023C233.035 249.015 232.896 248.979 232.768 248.916C232.64 248.854 232.526 248.767 232.433 248.659C232.339 248.552 232.268 248.427 232.224 248.292C232.179 248.157 232.162 248.015 232.173 247.873L237.359 166.634C237.367 166.492 237.403 166.353 237.466 166.225C237.528 166.097 237.616 165.983 237.723 165.889C237.83 165.796 237.955 165.725 238.09 165.68C238.225 165.636 238.368 165.619 238.509 165.63C238.65 165.635 238.789 165.669 238.917 165.729C239.044 165.789 239.159 165.875 239.252 165.98C239.346 166.086 239.418 166.209 239.462 166.343C239.507 166.477 239.524 166.618 239.513 166.759L234.244 247.998C234.233 248.274 234.116 248.534 233.917 248.726C233.718 248.917 233.453 249.023 233.177 249.023Z" fill="#191B1D"/>
<path d="M418.326 203.583C418.132 203.585 417.942 203.534 417.776 203.434C417.609 203.334 417.474 203.19 417.385 203.018L407.264 184.198C407.152 183.924 407.152 183.616 407.264 183.341C407.362 183.06 407.564 182.828 407.829 182.693L439.195 167.867C439.323 167.803 439.461 167.766 439.604 167.757C439.746 167.747 439.888 167.767 440.023 167.814C440.157 167.86 440.281 167.934 440.387 168.029C440.492 168.124 440.578 168.24 440.638 168.369C440.761 168.627 440.777 168.923 440.683 169.193C440.589 169.463 440.393 169.685 440.136 169.812L409.732 184.157L418.891 201.136L449.693 191.726C449.83 191.685 449.974 191.672 450.117 191.686C450.259 191.7 450.398 191.743 450.524 191.811C450.65 191.879 450.762 191.971 450.852 192.082C450.943 192.193 451.011 192.321 451.052 192.458C451.093 192.596 451.107 192.74 451.092 192.882C451.078 193.025 451.035 193.163 450.967 193.29C450.899 193.416 450.807 193.527 450.696 193.618C450.585 193.709 450.457 193.776 450.32 193.818L418.64 203.604L418.326 203.583Z" fill="#191B1D"/>
<path d="M445.489 442.199C474.003 442.199 497.118 435.243 497.118 426.662C497.118 418.081 474.003 411.125 445.489 411.125C416.975 411.125 393.859 418.081 393.859 426.662C393.859 435.243 416.975 442.199 445.489 442.199Z" fill="white"/>
<path d="M445.487 443.244C415.961 443.244 392.812 435.967 392.812 426.662C392.812 417.356 415.961 410.079 445.487 410.079C475.014 410.079 498.162 417.356 498.162 426.662C498.162 435.967 475.014 443.244 445.487 443.244ZM445.487 412.17C415.229 412.17 394.904 419.656 394.904 426.662C394.904 433.667 415.229 441.153 445.487 441.153C475.746 441.153 496.071 433.667 496.071 426.662C496.071 419.656 475.746 412.17 445.487 412.17Z" fill="#D1D3D4"/>
<path d="M406.574 382.288L405.34 382.518C401.609 383.075 398.213 384.988 395.805 387.892C394.454 389.955 393.709 392.356 393.654 394.821C393.598 397.286 394.235 399.718 395.491 401.84C400.97 411.71 414.311 414.386 424.599 415.411C426.055 415.648 427.546 415.533 428.949 415.076C429.641 414.84 430.243 414.396 430.673 413.805C431.103 413.213 431.341 412.504 431.353 411.773C431.265 411.171 431.027 410.602 430.662 410.116C430.297 409.63 429.815 409.243 429.262 408.991C428.184 408.492 427.034 408.167 425.854 408.029C419.455 406.984 412.722 406.21 406.867 403.262C403.458 401.526 398.69 397.574 401.179 393.308C402.05 391.958 403.301 390.895 404.775 390.255C410.651 387.453 416.235 389.586 422.027 391.301C422.448 391.455 422.897 391.519 423.344 391.489C423.898 391.337 424.377 390.986 424.689 390.504C425.001 390.022 425.125 389.443 425.038 388.875C424.85 386.345 422.32 384.693 419.936 383.752C415.679 382.135 411.08 381.631 406.574 382.288Z" fill="white"/>
<path d="M426.333 416.561C425.725 416.559 425.118 416.524 424.514 416.457C408.81 414.972 399.023 410.372 394.569 402.342C393.213 400.045 392.53 397.413 392.601 394.746C392.671 392.08 393.491 389.487 394.967 387.265C397.531 384.16 401.148 382.106 405.129 381.494L406.426 381.264C411.136 380.561 415.947 381.087 420.394 382.79C422.485 383.564 425.894 385.383 426.166 388.792C426.271 389.625 426.065 390.469 425.586 391.16C425.107 391.851 424.39 392.34 423.573 392.535C422.978 392.574 422.381 392.496 421.816 392.305L420.311 391.845C415.167 390.276 410.315 388.813 405.318 391.196C404.022 391.745 402.922 392.67 402.16 393.852C401.888 394.283 401.711 394.767 401.643 395.273C401.574 395.778 401.615 396.292 401.763 396.78C402.91 399.25 404.917 401.22 407.409 402.321C412.601 404.581 418.109 406.033 423.74 406.629L426.103 407.005C427.402 407.148 428.667 407.508 429.846 408.072C430.686 408.387 431.403 408.965 431.889 409.719C432.376 410.473 432.607 411.364 432.548 412.259C432.489 413.155 432.144 414.008 431.564 414.692C430.983 415.377 430.197 415.856 429.323 416.06C428.366 416.408 427.352 416.578 426.333 416.561ZM406.74 383.334L405.548 383.543C402.075 384.06 398.909 385.821 396.64 388.499C395.406 390.404 394.73 392.616 394.69 394.886C394.649 397.155 395.245 399.39 396.409 401.338C400.487 408.699 409.751 412.965 424.702 414.366C425.987 414.578 427.303 414.492 428.55 414.115C429.035 413.951 429.461 413.647 429.773 413.241C430.086 412.836 430.271 412.346 430.306 411.836C430.239 411.419 430.07 411.026 429.814 410.691C429.559 410.355 429.225 410.088 428.842 409.912C427.87 409.468 426.832 409.185 425.769 409.075L423.406 408.699C417.56 408.077 411.847 406.553 406.468 404.182C403.456 402.84 401.06 400.414 399.755 397.386C399.526 396.62 399.461 395.814 399.566 395.021C399.671 394.228 399.942 393.466 400.362 392.786C401.33 391.244 402.745 390.033 404.418 389.314C410.148 386.575 415.627 388.227 420.917 389.837L422.423 390.297C422.704 390.4 423.002 390.45 423.301 390.444C423.803 390.444 424.117 389.586 424.075 388.959C423.907 386.617 420.917 385.237 419.642 384.777C415.533 383.207 411.089 382.725 406.74 383.376V383.334Z" fill="#191B1D"/>
<path d="M411.402 371.708C411.402 371.708 421.063 419.928 421.858 422.835C422.652 425.742 445.487 437.682 463.68 425.951L479.593 376.663L411.402 371.708Z" fill="white"/>
<path d="M445.885 432.077C440.419 432.032 435.006 430.998 429.909 429.024C425.894 427.477 421.335 424.967 420.833 423.106C420.06 420.2 410.775 373.903 410.378 371.916C410.34 371.759 410.34 371.596 410.379 371.439C410.418 371.282 410.494 371.137 410.6 371.016C410.707 370.895 410.841 370.802 410.992 370.744C411.142 370.685 411.305 370.665 411.465 370.683L479.656 375.743C479.815 375.75 479.97 375.795 480.109 375.873C480.248 375.951 480.367 376.06 480.456 376.192C480.546 376.324 480.603 376.475 480.624 376.633C480.645 376.791 480.628 376.952 480.576 377.102L464.663 426.389C464.585 426.617 464.429 426.809 464.224 426.933C458.744 430.401 452.369 432.189 445.885 432.077ZM412.699 372.857C414.267 380.699 422.172 419.991 422.862 422.563C423.154 423.253 426.918 426.055 433.589 428.083C439.862 429.986 451.865 432.14 462.864 425.281L478.255 377.625L412.699 372.857Z" fill="#191B1D"/>
<path d="M479.757 374.52C480.092 366.35 465.069 359.099 446.203 358.325C427.337 357.551 411.77 363.546 411.435 371.716C411.1 379.885 426.122 387.136 444.989 387.91C463.855 388.684 479.421 382.689 479.757 374.52Z" fill="#191B1D"/>
<path d="M448.247 389.022C447.139 389.022 446.031 389.022 444.922 389.022C425.161 388.227 409.98 380.658 410.356 371.75C410.733 362.841 426.479 356.568 446.219 357.384C465.959 358.199 481.14 365.748 480.764 374.656C480.596 379.048 476.582 383.021 469.66 385.614C462.785 388.027 455.532 389.182 448.247 389.022ZM442.998 359.308C426.416 359.308 412.719 364.744 412.427 371.854C412.134 379.298 427.064 386.22 445.006 386.952C453.152 387.427 461.311 386.282 469.012 383.585C475.076 381.264 478.631 377.939 478.777 374.489C479.091 367.024 464.14 360.102 446.219 359.37L442.998 359.308Z" fill="#191B1D"/>
<path d="M363.766 237.731H253.126C252.848 237.731 252.582 237.62 252.386 237.424C252.19 237.228 252.08 236.962 252.08 236.685V204.022C252.085 203.746 252.197 203.484 252.392 203.289C252.587 203.094 252.85 202.982 253.126 202.977H363.766C364.043 202.977 364.309 203.087 364.505 203.283C364.701 203.479 364.811 203.745 364.811 204.022V236.748C364.795 237.014 364.678 237.264 364.484 237.447C364.289 237.63 364.033 237.731 363.766 237.731ZM254.171 235.64H362.72V205.068H254.171V235.64Z" fill="white"/>
<path d="M568.925 469.195H1.04492V491.089H568.925V469.195Z" fill="white"/>
<path d="M568.947 492.135H1.04555C0.768253 492.135 0.502312 492.025 0.306234 491.829C0.110155 491.632 0 491.367 0 491.089V469.195C0.00535337 468.92 0.11723 468.657 0.312161 468.462C0.507091 468.267 0.769929 468.155 1.04555 468.15H568.947C569.222 468.155 569.485 468.267 569.68 468.462C569.875 468.657 569.987 468.92 569.992 469.195V491.089C569.992 491.367 569.882 491.632 569.686 491.829C569.49 492.025 569.224 492.135 568.947 492.135ZM2.0911 490.044H567.901V470.241H2.0911V490.044Z" fill="#D1D3D4"/>
<path d="M479.573 264.727C479.298 264.716 479.037 264.599 478.846 264.4C478.655 264.202 478.549 263.936 478.549 263.661C478.549 261.256 480.075 204.566 486.328 184.931C492.58 165.295 504.311 157.119 504.792 156.806C505.022 156.65 505.305 156.593 505.577 156.646C505.85 156.699 506.09 156.858 506.245 157.088C506.401 157.318 506.458 157.6 506.405 157.873C506.352 158.145 506.193 158.386 505.963 158.541C505.838 158.541 494.399 166.466 488.314 185.558C482.229 204.65 480.661 263.117 480.64 263.703C480.637 263.84 480.607 263.975 480.552 264.101C480.497 264.227 480.418 264.341 480.319 264.436C480.22 264.531 480.103 264.606 479.975 264.656C479.847 264.706 479.711 264.73 479.573 264.727Z" fill="white"/>
</svg>
